# Blender 3.4.0
# www.blender.org
o Text
v 0.210106 -0.528794 0.016113
v 0.177880 -0.561020 0.016113
v 0.177880 -0.528794 0.016113
v 0.210106 -0.399888 0.016113
v 0.145653 -0.399888 0.016113
v 0.145653 -0.367661 0.016113
v 0.081200 -0.561020 0.016113
v 0.081200 -0.528794 0.016113
v 0.048974 -0.528794 0.016113
v 0.048974 -0.464341 0.016113
v 0.016747 -0.464341 0.016113
v 0.081200 -0.399888 0.016113
v 0.081200 -0.367661 0.016113
v 0.048974 -0.432114 0.016113
v 0.048974 -0.399888 0.016113
v 0.016747 -0.432114 0.016113
v 0.145653 -0.303208 0.016113
v 0.177880 -0.238755 0.016113
v 0.177880 -0.206529 0.016113
v 0.145653 -0.238755 0.016113
v 0.145653 -0.206529 0.016113
v 0.145653 -0.142076 0.016113
v 0.048974 -0.303208 0.016113
v 0.048974 -0.270982 0.016113
v 0.113427 -0.142076 0.016113
v 0.113427 -0.109849 0.016113
v 0.081200 -0.109849 0.016113
v 0.081200 -0.077623 0.016113
v 0.048974 -0.077623 0.016113
v 0.210106 -0.528794 -0.016113
v 0.177880 -0.561020 -0.016113
v 0.177880 -0.528794 -0.016113
v 0.210106 -0.399888 -0.016113
v 0.145653 -0.399888 -0.016113
v 0.145653 -0.367661 -0.016113
v 0.081200 -0.561020 -0.016113
v 0.081200 -0.528794 -0.016113
v 0.048974 -0.528794 -0.016113
v 0.048974 -0.464341 -0.016113
v 0.016747 -0.464341 -0.016113
v 0.081200 -0.399888 -0.016113
v 0.081200 -0.367661 -0.016113
v 0.048974 -0.432114 -0.016113
v 0.048974 -0.399888 -0.016113
v 0.016747 -0.432114 -0.016113
v 0.145653 -0.303208 -0.016113
v 0.177880 -0.238755 -0.016113
v 0.177880 -0.206529 -0.016113
v 0.145653 -0.238755 -0.016113
v 0.145653 -0.206529 -0.016113
v 0.145653 -0.142076 -0.016113
v 0.048974 -0.303208 -0.016113
v 0.048974 -0.270982 -0.016113
v 0.113427 -0.142076 -0.016113
v 0.113427 -0.109849 -0.016113
v 0.081200 -0.109849 -0.016113
v 0.081200 -0.077623 -0.016113
v 0.048974 -0.077623 -0.016113
v 0.306786 0.244642 0.016113
v 0.274559 0.212415 0.016113
v 0.274559 0.244642 0.016113
v 0.306786 0.309095 0.016113
v 0.274559 0.309095 0.016113
v 0.274559 0.341321 0.016113
v 0.048974 -0.045397 0.016113
v 0.177880 0.212415 0.016113
v 0.177880 0.244642 0.016113
v 0.242333 0.341321 0.016113
v 0.242333 0.373548 0.016113
v 0.210106 0.373548 0.016113
v 0.210106 0.405774 0.016113
v 0.145653 0.405774 0.016113
v 0.145653 0.438001 0.016113
v 0.081200 0.244642 0.016113
v 0.081200 0.276868 0.016113
v 0.016747 0.244642 0.016113
v 0.016747 0.276868 0.016113
v 0.306786 0.244642 -0.016113
v 0.274559 0.212415 -0.016113
v 0.274559 0.244642 -0.016113
v 0.306786 0.309095 -0.016113
v 0.274559 0.309095 -0.016113
v 0.274559 0.341321 -0.016113
v 0.048974 -0.045397 -0.016113
v 0.177880 0.212415 -0.016113
v 0.177880 0.244642 -0.016113
v 0.242333 0.341321 -0.016113
v 0.242333 0.373548 -0.016113
v 0.210106 0.373548 -0.016113
v 0.210106 0.405774 -0.016113
v 0.145653 0.405774 -0.016113
v 0.145653 0.438001 -0.016113
v 0.081200 0.244642 -0.016113
v 0.081200 0.276868 -0.016113
v 0.016747 0.244642 -0.016113
v 0.016747 0.276868 -0.016113
v -0.015479 -0.270982 0.016113
v -0.015479 -0.238755 0.016113
v -0.047706 -0.238755 0.016113
v -0.047706 -0.206529 0.016113
v -0.079932 -0.206529 0.016113
v -0.079932 -0.174302 0.016113
v -0.112159 -0.174302 0.016113
v -0.112159 -0.142076 0.016113
v -0.176611 -0.142076 0.016113
v -0.176611 -0.109849 0.016113
v -0.208838 -0.109849 0.016113
v -0.015479 -0.270982 -0.016113
v -0.015479 -0.238755 -0.016113
v -0.047706 -0.238755 -0.016113
v -0.047706 -0.206529 -0.016113
v -0.079932 -0.206529 -0.016113
v -0.079932 -0.174302 -0.016113
v -0.112159 -0.174302 -0.016113
v -0.112159 -0.142076 -0.016113
v -0.176611 -0.142076 -0.016113
v -0.176611 -0.109849 -0.016113
v -0.208838 -0.109849 -0.016113
v -0.015479 -0.045397 0.016113
v -0.015479 -0.013170 0.016113
v -0.047706 -0.013170 0.016113
v -0.047706 0.019056 0.016113
v -0.079932 0.019056 0.016113
v -0.079932 0.051283 0.016113
v -0.112159 0.051283 0.016113
v -0.079932 0.180189 0.016113
v -0.112159 0.180189 0.016113
v -0.208838 -0.045397 0.016113
v -0.241064 -0.045397 0.016113
v -0.241064 0.019056 0.016113
v -0.079932 0.244642 0.016113
v -0.015479 0.405774 0.016113
v -0.015479 0.438001 0.016113
v -0.112159 0.373548 0.016113
v -0.112159 0.405774 0.016113
v -0.241064 0.244642 0.016113
v -0.208838 0.309095 0.016113
v -0.241064 0.309095 0.016113
v -0.176611 0.341321 0.016113
v -0.176611 0.373548 0.016113
v -0.208838 0.341321 0.016113
v -0.273291 0.019056 0.016113
v -0.273291 0.083509 0.016113
v -0.305517 0.083509 0.016113
v -0.273291 0.147962 0.016113
v -0.305517 0.147962 0.016113
v -0.273291 0.244642 0.016113
v -0.015479 -0.045397 -0.016113
v -0.015479 -0.013170 -0.016113
v -0.047706 -0.013170 -0.016113
v -0.047706 0.019056 -0.016113
v -0.079932 0.019056 -0.016113
v -0.079932 0.051283 -0.016113
v -0.112159 0.051283 -0.016113
v -0.079932 0.180189 -0.016113
v -0.112159 0.180189 -0.016113
v -0.208838 -0.045397 -0.016113
v -0.241064 -0.045397 -0.016113
v -0.241064 0.019056 -0.016113
v -0.079932 0.244642 -0.016113
v -0.015479 0.405774 -0.016113
v -0.015479 0.438001 -0.016113
v -0.112159 0.373548 -0.016113
v -0.112159 0.405774 -0.016113
v -0.241064 0.244642 -0.016113
v -0.208838 0.309095 -0.016113
v -0.241064 0.309095 -0.016113
v -0.176611 0.341321 -0.016113
v -0.176611 0.373548 -0.016113
v -0.208838 0.341321 -0.016113
v -0.273291 0.019056 -0.016113
v -0.273291 0.083509 -0.016113
v -0.305517 0.083509 -0.016113
v -0.273291 0.147962 -0.016113
v -0.305517 0.147962 -0.016113
v -0.273291 0.244642 -0.016113
vn -0.0000 1.0000 -0.0000
vn 1.0000 -0.0000 -0.0000
vn -0.0000 -1.0000 -0.0000
vn -0.0000 -0.0000 1.0000
vn -0.0000 -0.0000 -1.0000
vn -1.0000 -0.0000 -0.0000
s 0
f 34//1 4//1 33//1
f 50//2 22//2 21//2
f 33//2 1//2 30//2
f 23//3 46//3 17//3
f 91//1 71//1 90//1
f 105//3 115//3 104//3
f 160//3 76//3 131//3
f 5//4 12//4 10//4
f 77//3 94//3 75//3
f 148//5 58//5 113//5
f 169//1 134//1 163//1
f 32//5 37//5 34//5
f 74//3 86//3 67//3
f 108//3 24//3 97//3
f 154//2 127//2 125//2
f 136//6 167//6 165//6
f 66//3 79//3 60//3
f 42//1 6//1 35//1
f 75//4 74//4 67//4
f 148//1 65//1 84//1
f 155//2 131//2 126//2
f 9//6 39//6 38//6
f 172//6 142//6 143//6
f 49//2 17//2 46//2
f 175//6 144//6 146//6
f 78//2 62//2 59//2
f 159//6 129//6 130//6
f 31//2 3//2 2//2
f 3//3 30//3 1//3
f 34//2 6//2 5//2
f 37//6 7//6 8//6
f 162//1 73//1 92//1
f 11//3 39//3 10//3
f 9//3 37//3 8//3
f 44//6 14//6 15//6
f 45//1 14//1 43//1
f 42//6 12//6 13//6
f 44//1 12//1 41//1
f 45//6 11//6 16//6
f 47//2 19//2 18//2
f 20//3 47//3 18//3
f 50//1 19//1 48//1
f 53//6 23//6 24//6
f 56//2 28//2 27//2
f 56//1 26//1 55//1
f 54//2 26//2 25//2
f 58//1 28//1 57//1
f 54//1 22//1 51//1
f 79//2 61//2 60//2
f 61//3 78//3 59//3
f 7//3 31//3 2//3
f 82//1 62//1 81//1
f 82//2 64//2 63//2
f 86//6 66//6 67//6
f 145//6 176//6 174//6
f 87//2 69//2 68//2
f 89//1 69//1 88//1
f 91//2 73//2 72//2
f 89//2 71//2 70//2
f 94//6 74//6 75//6
f 95//2 77//2 76//2
f 164//1 132//1 161//1
f 87//1 64//1 83//1
f 111//6 99//6 100//6
f 99//3 109//3 98//3
f 109//6 97//6 98//6
f 101//3 111//3 100//3
f 115//6 103//6 104//6
f 103//3 113//3 102//3
f 117//6 105//6 106//6
f 107//3 117//3 106//3
f 113//6 101//6 102//6
f 148//2 120//2 119//2
f 150//1 120//1 149//1
f 152//2 124//2 123//2
f 154//1 124//1 153//1
f 150//2 122//2 121//2
f 152//1 122//1 151//1
f 127//3 155//3 126//3
f 129//3 157//3 128//3
f 162//6 132//6 133//6
f 157//6 107//6 128//6
f 164//6 134//6 135//6
f 167//1 137//1 166//1
f 169//6 139//6 140//6
f 170//1 139//1 168//1
f 170//6 137//6 141//6
f 144//3 172//3 143//3
f 175//1 145//1 174//1
f 142//3 159//3 130//3
f 176//1 136//1 165//1
f 58//2 65//2 29//2
f 34//1 5//1 4//1
f 50//2 51//2 22//2
f 33//2 4//2 1//2
f 23//3 52//3 46//3
f 91//1 72//1 71//1
f 105//3 116//3 115//3
f 160//3 95//3 76//3
f 8//4 7//4 2//4
f 3//4 1//4 4//4
f 8//4 2//4 3//4
f 10//4 9//4 8//4
f 16//4 11//4 10//4
f 12//4 15//4 14//4
f 14//4 16//4 10//4
f 10//4 8//4 5//4
f 8//4 3//4 5//4
f 3//4 4//4 5//4
f 5//4 6//4 13//4
f 12//4 14//4 10//4
f 5//4 13//4 12//4
f 77//3 96//3 94//3
f 87//5 83//5 82//5
f 82//5 81//5 78//5
f 80//5 79//5 85//5
f 82//5 78//5 80//5
f 89//5 88//5 87//5
f 87//5 82//5 86//5
f 82//5 80//5 86//5
f 80//5 85//5 86//5
f 86//5 93//5 94//5
f 96//5 95//5 160//5
f 86//5 94//5 89//5
f 87//5 86//5 89//5
f 91//5 90//5 89//5
f 89//5 94//5 91//5
f 94//5 96//5 161//5
f 91//5 94//5 161//5
f 162//5 92//5 91//5
f 160//5 155//5 156//5
f 96//5 160//5 163//5
f 161//5 162//5 91//5
f 163//5 164//5 161//5
f 168//5 169//5 163//5
f 166//5 170//5 168//5
f 165//5 167//5 166//5
f 174//5 176//5 165//5
f 173//5 175//5 174//5
f 159//5 171//5 172//5
f 172//5 173//5 174//5
f 174//5 165//5 156//5
f 165//5 166//5 156//5
f 166//5 168//5 160//5
f 168//5 163//5 160//5
f 163//5 161//5 96//5
f 156//5 166//5 160//5
f 159//5 172//5 154//5
f 172//5 174//5 154//5
f 157//5 158//5 159//5
f 117//5 118//5 157//5
f 115//5 116//5 117//5
f 113//5 114//5 115//5
f 111//5 112//5 113//5
f 109//5 110//5 111//5
f 53//5 108//5 109//5
f 46//5 52//5 53//5
f 48//5 47//5 49//5
f 49//5 46//5 53//5
f 53//5 109//5 54//5
f 109//5 111//5 56//5
f 111//5 113//5 58//5
f 113//5 115//5 148//5
f 49//5 53//5 50//5
f 109//5 56//5 54//5
f 50//5 48//5 49//5
f 54//5 51//5 50//5
f 56//5 55//5 54//5
f 58//5 57//5 56//5
f 148//5 84//5 58//5
f 150//5 149//5 148//5
f 152//5 151//5 150//5
f 154//5 153//5 152//5
f 154//5 152//5 157//5
f 152//5 150//5 117//5
f 157//5 152//5 117//5
f 150//5 148//5 115//5
f 174//5 156//5 154//5
f 157//5 159//5 154//5
f 115//5 117//5 150//5
f 56//5 111//5 58//5
f 54//5 50//5 53//5
f 169//1 140//1 134//1
f 37//5 38//5 39//5
f 39//5 40//5 45//5
f 43//5 44//5 41//5
f 39//5 45//5 43//5
f 31//5 36//5 37//5
f 37//5 39//5 34//5
f 39//5 43//5 41//5
f 41//5 42//5 35//5
f 39//5 41//5 34//5
f 32//5 31//5 37//5
f 33//5 30//5 32//5
f 41//5 35//5 34//5
f 34//5 33//5 32//5
f 74//3 93//3 86//3
f 108//3 53//3 24//3
f 154//2 156//2 127//2
f 136//6 138//6 167//6
f 66//3 85//3 79//3
f 42//1 13//1 6//1
f 20//4 18//4 19//4
f 21//4 22//4 25//4
f 20//4 19//4 21//4
f 23//4 17//4 24//4
f 17//4 20//4 24//4
f 98//4 97//4 24//4
f 20//4 21//4 24//4
f 21//4 25//4 24//4
f 25//4 26//4 27//4
f 27//4 28//4 29//4
f 29//4 65//4 119//4
f 119//4 120//4 121//4
f 121//4 122//4 123//4
f 123//4 124//4 125//4
f 127//4 126//4 131//4
f 121//4 123//4 106//4
f 123//4 125//4 128//4
f 121//4 104//4 119//4
f 104//4 121//4 106//4
f 119//4 104//4 102//4
f 27//4 29//4 100//4
f 29//4 119//4 102//4
f 25//4 27//4 98//4
f 98//4 24//4 25//4
f 100//4 99//4 98//4
f 102//4 101//4 100//4
f 104//4 103//4 102//4
f 106//4 105//4 104//4
f 128//4 107//4 106//4
f 130//4 129//4 128//4
f 143//4 142//4 130//4
f 146//4 144//4 143//4
f 136//4 147//4 145//4
f 145//4 146//4 143//4
f 143//4 130//4 125//4
f 130//4 128//4 125//4
f 128//4 106//4 123//4
f 102//4 100//4 29//4
f 100//4 98//4 27//4
f 136//4 145//4 127//4
f 145//4 143//4 127//4
f 137//4 138//4 136//4
f 139//4 141//4 137//4
f 134//4 140//4 139//4
f 132//4 135//4 134//4
f 73//4 133//4 132//4
f 70//4 71//4 72//4
f 72//4 73//4 132//4
f 132//4 134//4 77//4
f 134//4 139//4 131//4
f 77//4 134//4 131//4
f 139//4 137//4 131//4
f 137//4 136//4 127//4
f 137//4 127//4 131//4
f 143//4 125//4 127//4
f 72//4 132//4 75//4
f 75//4 132//4 77//4
f 68//4 69//4 70//4
f 70//4 72//4 75//4
f 68//4 70//4 67//4
f 63//4 64//4 68//4
f 59//4 62//4 63//4
f 66//4 60//4 61//4
f 61//4 59//4 63//4
f 63//4 68//4 67//4
f 70//4 75//4 67//4
f 131//4 76//4 77//4
f 61//4 63//4 67//4
f 67//4 66//4 61//4
f 148//1 119//1 65//1
f 155//2 160//2 131//2
f 9//6 10//6 39//6
f 172//6 171//6 142//6
f 49//2 20//2 17//2
f 175//6 173//6 144//6
f 78//2 81//2 62//2
f 159//6 158//6 129//6
f 31//2 32//2 3//2
f 3//3 32//3 30//3
f 34//2 35//2 6//2
f 37//6 36//6 7//6
f 162//1 133//1 73//1
f 11//3 40//3 39//3
f 9//3 38//3 37//3
f 44//6 43//6 14//6
f 45//1 16//1 14//1
f 42//6 41//6 12//6
f 44//1 15//1 12//1
f 45//6 40//6 11//6
f 47//2 48//2 19//2
f 20//3 49//3 47//3
f 50//1 21//1 19//1
f 53//6 52//6 23//6
f 56//2 57//2 28//2
f 56//1 27//1 26//1
f 54//2 55//2 26//2
f 58//1 29//1 28//1
f 54//1 25//1 22//1
f 79//2 80//2 61//2
f 61//3 80//3 78//3
f 7//3 36//3 31//3
f 82//1 63//1 62//1
f 82//2 83//2 64//2
f 86//6 85//6 66//6
f 145//6 147//6 176//6
f 87//2 88//2 69//2
f 89//1 70//1 69//1
f 91//2 92//2 73//2
f 89//2 90//2 71//2
f 94//6 93//6 74//6
f 95//2 96//2 77//2
f 164//1 135//1 132//1
f 87//1 68//1 64//1
f 111//6 110//6 99//6
f 99//3 110//3 109//3
f 109//6 108//6 97//6
f 101//3 112//3 111//3
f 115//6 114//6 103//6
f 103//3 114//3 113//3
f 117//6 116//6 105//6
f 107//3 118//3 117//3
f 113//6 112//6 101//6
f 148//2 149//2 120//2
f 150//1 121//1 120//1
f 152//2 153//2 124//2
f 154//1 125//1 124//1
f 150//2 151//2 122//2
f 152//1 123//1 122//1
f 127//3 156//3 155//3
f 129//3 158//3 157//3
f 162//6 161//6 132//6
f 157//6 118//6 107//6
f 164//6 163//6 134//6
f 167//1 138//1 137//1
f 169//6 168//6 139//6
f 170//1 141//1 139//1
f 170//6 166//6 137//6
f 144//3 173//3 172//3
f 175//1 146//1 145//1
f 142//3 171//3 159//3
f 176//1 147//1 136//1
f 58//2 84//2 65//2
