<?xml version="1.0" encoding="UTF-8"?>
<svg xmlns="http://www.w3.org/2000/svg" viewBox="0 0 1129 869">
  <defs>
    <style>
      .cls-1 {
        fill: none;
        stroke: #000;
        stroke-miterlimit: 10;
        stroke-width: 6px;
      }

      .cls-2 {
        fill: #ffc90c;
      }
    </style>
  </defs>
  <g id="Layer_1" data-name="Layer 1">
    <rect class="cls-2" x=".11" y="0" width="1129.32" height="871.06" rx="12" ry="12"/>
    <rect x="127" y="420" width="869" height="24"/>
    <path d="M245.69,381.81c5.29-2.55,10.41-5.47,15.51-8.4,2.22-1.27,4.26-1.98,6.43-.19,1.82,1.5,3.21,.61,4.94-.65-12.06-7.93-24.78-13.63-38.28-17.64-11.59-3.44-23.52-3.02-35.41-2.93-15.7,.12-31.32-.59-46.6-4.6-7.3-1.91-14.41-4.39-20.35-9.27-1.58-1.3-2.7-3.15-4.04-4.74,.23-.23,.46-.45,.7-.68,.7,.33,1.47,.56,2.09,.99,9.89,6.81,21.17,9.7,32.81,11.39,14.97,2.18,30.01,1.14,45.04,.92,10.4-.15,20.92-.03,30.76,3.5,10.96,3.93,21.72,8.54,32.19,13.63,6.2,3.02,11.88,3.73,18.31,1.38,9.58-3.51,19.54-4.38,29.71-3.44,10.82,1,20.35,5.06,29.32,11.03,5.5,3.66,11.58,6.33,18.3,7.07,2.75,.31,4.88-.17,4.7-3.71-.05-1.09,.24-2.24,.58-3.29,.6-1.88,.82-4.55,3.39-4.39,1.63,.1,3.33,1.46,4.7,2.61,1.53,1.28,2.72,2.96,4.4,4.85,.34-2.35,.14-4.23,.92-5.49,.86-1.38,2.58-2.3,4.09-3.12,.17-.09,1.53,1.69,2.11,2.73,.94,1.68,1.54,3.57,2.59,5.17,.57,.87,1.68,1.71,2.67,1.9,4.79,.91,9.7,1.27,14.41,2.45,4.19,1.05,8.29,2.67,12.2,4.53,2.81,1.33,2.82,3.14,.74,5.52-.26,.3-.55,.6-.7,.95-1.98,4.66-6.09,5.84-10.54,6.51-1.29,.19-2.69,.27-3.8,.85-5.14,2.68-10.52,4.1-16.35,4.2-3.74,.06-7.18,1.45-10.28,4.14,1.99,1.08,3.67,2.01,5.36,2.91,2.5,1.33,4.88,2.87,8.01,2.03,3.25-.87,5.98-.09,7.4,3.2-.5,.84-.97,1.65-1.52,2.58-.98-.25-2.04-.53-3.1-.8,.59,1.58,.43,2.4-1.55,1.74-1.43-.48-2.92-.79-4.39-1.12-5.03-1.14-10.07-2.25-15.11-3.38-.52-.12-1.03-.22-1.55-.33,3.53,3.35,6.25,7.51,11.67,8.12,3.74,.42,6.62,2.47,6.85,7.09-.99-.3-1.84-.56-2.77-.85,.27,.79,.49,1.43,.71,2.07-.15,.18-.3,.37-.45,.55-1.65-.97-3.3-1.94-5.04-2.97-.04,.84-.08,1.63-.14,2.99-1.7-1.41-2.83-2.77-4.29-3.48-5.62-2.78-11.33-5.41-17.06-7.96-1.05-.47-2.38-.36-3.59-.43-7.02-.38-13.9-1.12-20.58-3.75-7.83-3.08-15.78-6-23.91-8.13-5.09-1.33-10.6-1.35-15.92-1.42-3.17-.05-6.35,1.21-9.55,1.39-9.19,.49-18.32-.14-25.51-6.7-3.59-3.27-6.53-2.73-9.99-.52-.86,.54-1.81,.94-2.64,1.53-4.56,3.22-9.1,6.47-13.64,9.71-1.08,.77-2.23,1.82-2.3,.1-2.11,.13-4.05,.25-5.98,.37-.06-.3-.11-.6-.17-.9,.78-.71,1.56-1.41,2.64-2.39-1.32,.3-2.24,.52-3.17,.73-.1-.24-.2-.48-.3-.72,1.54-1.03,3.08-2.06,5.09-3.4-.85,0-1.21,.07-1.54,0-.31-.08-.57-.3-1.17-.64,.95-.52,1.51-.93,2.15-1.15,8.59-2.98,16.9-6.46,23.29-13.3,.76-.81,1.59-1.77,2.58-2.09,1.3-.43,2.97-.76,4.15-.31,3.2,1.24,4.57,.95,6.51-2.05-1.67-.8-3.74-1.23-4.93-2.49-2.02-2.14-4.09-2.11-6.3-1.01-3.09,1.53-6.12,3.21-9.05,5.04-2.93,1.83-5.65,3.97-8.56,5.83-.59,.38-1.61,.09-2.44,.11l-.14-.5c-1.2,.61-2.39,1.22-4.21,2.14,.54-1.27,.75-1.76,.97-2.27-.83,.02-1.57,.04-2.78,.07,.93-.95,1.5-1.53,2.05-2.09-.64-.3-1.1-.51-2.04-.95,1.53-.91,2.63-1.56,3.78-2.25-.48-.24-.9-.45-2.15-1.07,3.5-.99,6.49-1.4,9.06-2.64Zm150.22,2.54c.26,.17,.52,.33,.78,.5,.92-.35,2.56-.63,2.6-1.06,.06-.68-1.75-1.37-1.98-2.07-.16-.48,1.34-1,1.06-1.36-.32-.42-1.82,.04-2.78,.11,.01,.26,.02,.53,.03,.79,.32,1.06,.13,2.02,.29,3.09Z"/>
    <line class="cls-1" x1="210" y1="252" x2="225" y2="436"/>
    <line class="cls-1" x1="321" y1="113" x2="303" y2="385"/>
    <line class="cls-1" x1="228" y1="138" x2="283" y2="444"/>
    <line class="cls-1" x1="408.36" y1="243.55" x2="384.36" y2="384.55"/>
    <line class="cls-1" x1="774" y1="116" x2="751.9" y2="431.59"/>
    <line class="cls-1" x1="898" y1="289" x2="842" y2="430"/>
    <line class="cls-1" x1="693" y1="243" x2="722" y2="420"/>
    <line class="cls-1" x1="852" y1="171" x2="820" y2="429"/>
    <path d="M203.24,149.94c7.1-.75,12.58-5.53,18.82-8.52,6.75-3.23,14.24-4.91,21.72-4.92,1.95,0,7.15-.07,7.25,2.87,.05,1.44,2.05,2.1,2.8,.76,2.51-4.49,9.46-5.02,12.72-1.12,.52,.62,1.59,.54,2.12,0,2.61-2.64,1.28-7.07-1.67-8.87-1.93-1.18-4.32-1.34-6.51-1.15-1.94,.17-3.89,.46-5.67,1.27-1.55,.71-3,1.9-3.36,3.65s.46,3.43,1.88,4.44,3.32,1.36,5.09,1.53c1.26,.12,3.48,.23,4.21,1.49,.5,.86-.2,1.75-.98,2.12-.92,.43-1.95,.07-2.7-.53-2.06-1.64-2.24-4.58-2.42-6.99-.14-1.91-3.15-1.93-3,0,.3,3.97,1.06,8.65,5.26,10.31,3.54,1.4,8.31-1.8,6.72-5.82-1.41-3.54-5.55-3.1-8.59-3.81-1.09-.26-3.18-.99-2.4-2.49,.67-1.29,2.85-1.71,4.12-1.93,2.15-.37,5.07-.78,6.97,.58,1.19,.85,2.12,2.88,.93,4.08h2.12c-4.5-5.37-14.05-4.34-17.44,1.73l2.8,.76c-.25-7.41-11.97-6.05-16.65-5.46-8.08,1.02-15.5,3.86-22.46,8.02-3.62,2.17-7.38,4.56-11.68,5.01-1.9,.2-1.92,3.2,0,3h0Z"/>
    <path d="M290.45,114.95c8.24-.25,16.48-.49,24.71-.74,7.16-.21,15.09-.93,21.47,3.02,1.29,.8,2.47,1.78,3.45,2.96,1.11,1.34,1.79,2.97,2.84,4.36,1.69,2.22,5.26,3.94,7.68,1.7,2.29-2.11,1.18-5.59-.82-7.46-2.17-2.02-5.55-3.27-5.05-6.85,.17-1.19,.91-2.41,2.18-2.6,1.02-.16,2.34,.26,2.93,1.14,.84,1.27-.3,2.68-1.41,3.3-1.84,1.03-4.16,.61-6.13,.3s-2.7,2.59-.8,2.89c3.67,.58,7.94,.93,10.48-2.37,1.88-2.45,1.3-5.72-1.31-7.35-2.38-1.48-5.66-1.21-7.49,.99-1.95,2.35-1.91,5.99-.26,8.51,1.03,1.57,2.62,2.48,4.08,3.61,.79,.61,2.78,2.51,1.62,3.63s-2.98-.73-3.58-1.61c-1.05-1.54-1.84-3.19-3.09-4.6-5.27-5.94-13.74-6.83-21.2-6.72-10.1,.16-20.2,.59-30.3,.89-1.93,.06-1.93,3.06,0,3h0Z"/>
    <path d="M377.78,230.13c6.97,3.51,13.95,7.01,20.92,10.52l10.68,5.37c3.2,1.61,6.52,3.08,9.56,4.97,2.71,1.69,5.43,4.24,5.69,7.63,.24,3.06-1.9,5.91-.15,8.87,1.44,2.43,4.88,3.02,6.47,.37,.61-1.02,.82-2.27,.7-3.44-.17-1.65-1.3-3.33-1.11-5,.31-2.8,4.23-3.31,5.19-.66s-2.5,4.65-4.49,2.71c-1.38-1.35-3.51,.77-2.12,2.12,2.04,1.99,5.38,2.21,7.67,.5s2.71-5.15,1.15-7.58c-1.64-2.56-4.91-3.28-7.51-1.72-1.23,.74-2.23,1.92-2.66,3.3-.55,1.74,.03,3.48,.55,5.15,.18,.59,.93,3.31-.39,3.42-.51,.04-.91-.71-1.05-1.1-.29-.78-.11-1.63,.07-2.41,.41-1.79,.86-3.46,.61-5.31-.23-1.69-.92-3.32-1.89-4.71-2.14-3.06-5.37-4.95-8.64-6.61-3.81-1.94-7.64-3.84-11.46-5.76-8.75-4.4-17.51-8.8-26.26-13.21-1.72-.87-3.24,1.72-1.51,2.59h0Z"/>
    <path d="M198.16,266.83c1.08-3.13,3.32-5.87,5.65-8.17,1.16-1.15,2.41-2.23,3.81-3.09s2.93-1.45,4.43-2.13c3.26-1.48,5.29-4.03,6.98-7.13s3.31-6.62,4.33-10.07c1.08-3.67,1.22-7.6-1.36-10.66l.39,1.46c.09-.23,.74-.16,.89-.12,.73,.19,1.05,1.01,1.22,1.67,.46,1.7,.15,3.52,.53,5.24,.65,2.99,3.45,5.1,6.51,5s5.29-2.35,5.79-5.19c.45-2.58-.56-5.23-3.29-5.81s-5.86,.16-8.28,1.38c-1.72,.87-.21,3.46,1.51,2.59,1.11-.56,2.39-.89,3.62-1.06,.83-.11,2.49-.37,3.2,.29,.85,.79,.25,2.72-.29,3.49-.82,1.17-2.23,1.56-3.57,1.11-1.74-.58-2.32-2.06-2.44-3.78-.13-1.87-.04-3.77-.93-5.49-1.53-2.97-5.99-3.52-7.36-.14-.21,.51,.07,1.08,.39,1.46,2.04,2.43,1.21,5.96,.29,8.68-1.1,3.28-2.6,6.59-4.38,9.56-.86,1.43-1.81,2.85-3.2,3.81-1.21,.83-2.61,1.35-3.95,1.94-2.87,1.27-5.33,3.17-7.5,5.43-2.47,2.56-4.7,5.54-5.87,8.93-.63,1.83,2.27,2.61,2.89,.8h0Z"/>
    <path d="M715.6,227.55c-7.62,2.45-13.45,8-20.19,12.06-7.11,4.27-14.86,7.43-22.88,9.51-2.03,.53-4.1,1.08-6.2,1.19-.81,.04-3.48,.27-3.8-.79-.34-1.16-2.15-1.57-2.74-.36-1.22,2.5-3.97,3.95-6.52,4.76s-5.88,1.27-8.48,.07c-.58-.27-1.35-.29-1.82,.23-1.22,1.37-1.58,3.14-.53,4.73s3.08,2.38,4.98,2.52c2.3,.18,4.66-.4,6.84-1.09s4.32-1.42,6.18-2.66c1.43-.95,2.98-2.4,2.65-4.29-.28-1.63-1.75-2.53-3.28-2.8-1.95-.34-3.94-.05-5.87,.31-.94,.17-1.88,.32-2.83,.36-.64,.03-1.86,.16-2.4-.29-.21-.17-.16,.04-.15-.2,.02-.32,.57-.73,.8-.89,.95-.69,2.19-.93,3.34-.81,2.68,.28,3.87,2.22,4.72,4.54,.66,1.8,3.56,1.02,2.89-.8-.67-1.82-1.42-3.64-2.94-4.92s-3.54-1.91-5.5-1.84-4,.82-5.3,2.35c-1.05,1.24-1.46,2.97-.36,4.31,2.28,2.79,6.98,1.22,9.92,.84,.65-.08,3.75-.54,4.03,.39-.03-.11-.23,.28-.34,.41-.25,.29-.58,.52-.89,.73-.87,.58-1.83,1.05-2.8,1.43-2.34,.92-4.92,1.83-7.45,1.93-.85,.03-5.07-.49-3.58-2.16l-1.82,.23c3.37,1.56,7.31,1.33,10.79,.24,3.25-1.02,6.77-2.94,8.32-6.13l-2.74-.36c1,3.37,5.53,3.2,8.3,2.84,4.29-.56,8.57-1.92,12.65-3.35,8.36-2.93,16.03-7.07,23.21-12.22,3.94-2.83,7.94-5.64,12.6-7.14,1.83-.59,1.05-3.49-.8-2.89h0Z"/>
    <path d="M828.29,158.31c7.09,4.2,14.18,8.4,21.27,12.6,5.97,3.54,12.71,7.02,16.15,13.37,.77,1.42,1.34,2.97,1.6,4.57,.3,1.85-.05,3.72,.11,5.57,.25,2.93,2.56,6.46,5.98,5.51,2.85-.79,3.56-4.21,2.89-6.73-.75-2.86-2.9-5.65-.59-8.41,.86-1.03,2.23-1.59,3.47-.91,.97,.53,1.94,1.84,1.55,3-.47,1.4-2.39,1.61-3.62,1.33-1.82-.41-3.3-1.78-4.65-2.98-1.44-1.27-3.57,.84-2.12,2.12,2.61,2.3,5.6,4.57,9.29,3.79,3.06-.65,4.95-3.66,3.81-6.64-1.07-2.8-4.19-4.66-7.14-3.65s-4.75,4.08-4.7,7.08c.03,1.9,.93,3.52,1.55,5.27,.34,.97,.9,3.23-.45,3.78-1.75,.72-2.31-2.42-2.33-3.44-.03-2,.14-3.91-.25-5.89-1.54-7.7-8.19-12.78-14.51-16.63-8.55-5.2-17.21-10.21-25.82-15.31-1.66-.99-3.18,1.61-1.51,2.59h0Z"/>
    <path d="M754.08,120.02c6.72-1.12,13.44-2.24,20.16-3.35l9.83-1.64c3.38-.56,6.83-1.37,10.26-1.53,2.59-.12,5.49,.32,7.34,2.31s1.78,4.92,4.23,6.34c2.16,1.25,5.25,.5,5.55-2.28,.29-2.77-2.02-4.15-3.85-5.68-.92-.77-1.46-1.71-1.01-2.91,.41-1.09,1.43-1.69,2.56-1.28,2.8,1.01,1.51,4.62-1.22,4.25-.81-.11-1.49,.77-1.5,1.5,0,.9,.7,1.39,1.5,1.5,2.69,.36,5.33-1.72,5.8-4.36s-1.51-5.23-4.09-5.87-5.13,.94-5.94,3.46c-.96,2.97,.77,5.09,3.02,6.77,.39,.29,2.52,1.89,1.6,2.53-.26,.18-.94-.22-1.15-.38-.72-.56-1.04-1.59-1.38-2.4-1.2-2.84-3.09-4.78-6.04-5.83-3.1-1.1-6.46-.69-9.63-.18-3.76,.6-7.51,1.25-11.27,1.87-8.52,1.42-17.04,2.84-25.57,4.25-1.9,.32-1.09,3.21,.8,2.89h0Z"/>
    <path d="M883.02,277.24c3.26,1.01,6.31,3.22,8.6,5.73,2.15,2.35,2.76,5.52,5.45,7.44,3.11,2.21,7.1,3.62,10.72,4.74,3.26,1.01,7.09,1.62,10.14-.32l-1.16,.15c-.09-.03-.88,.44-1.1,.5-.78,.19-1.6,.16-2.39,.16-1.71,.01-3.47,.11-4.9,1.15-2.51,1.81-2.76,5.37-.25,7.29,2,1.53,6.13,2.12,7.62-.43,1.21-2.07,.42-5.14-.7-7.08-.97-1.67-3.56-.16-2.59,1.51,.38,.65,.61,1.36,.75,2.1,.09,.47,.33,1.61-.09,1.99-.5,.47-1.88,.15-2.43-.06-.8-.3-1.59-.93-1.34-1.87,.62-2.31,4.44-1.5,6.15-1.72,2.07-.27,4.37-1.43,4.2-3.85-.07-.97-.64-1.86-1.49-2.33-1.28-.71-2.12,.27-3.34,.58-2.3,.59-4.85-.18-7.03-.91-2.64-.89-5.33-1.91-7.76-3.27-1.03-.58-2.03-1.2-2.73-2.18-.6-.83-.98-1.81-1.47-2.71-2.37-4.42-7.34-8.04-12.08-9.51-1.85-.57-2.64,2.32-.8,2.89h0Z"/>
  </g>
  <g id="Layer_2" data-name="Layer 2">
    <path d="M396.56,120.44c-9.16-8.85-15.28-19.68-19.63-31.56-3.86-10.53-6.73-21.48-12.14-31.37-2.93-5.36-6.63-10.17-10.77-14.65-4.42-4.78-9.49-9.25-15.47-11.98s-12.8-3.83-19.15-2.01c-5.34,1.53-9.67,5.08-12.9,9.51s-5.43,9.87-7.08,15.19c-2.07,6.66-3.6,13.52-5.01,20.35-3.07,14.79-5.06,29.81-5.94,44.89-.75,12.91-.45,27.46,8.25,37.92,7.31,8.78,20.1,13.34,30.3,6.65,11.42-7.49,13.45-21.79,14.97-34.26,1.89-15.46,3.77-30.92,5.66-46.38,.46-3.78,.92-7.57,1.39-11.35,.23-1.91-2.77-1.9-3,0-1.81,14.8-3.61,29.6-5.42,44.4-.87,7.15-1.55,14.37-2.74,21.48-1.04,6.24-2.73,12.5-6.46,17.72-3.14,4.38-7.83,7.95-13.31,8.58s-10.59-1.41-14.78-4.6c-10.32-7.87-12.32-21.39-12.13-33.55,.22-14.25,2.01-28.6,4.53-42.62,1.27-7.06,2.78-14.07,4.54-21.03,1.36-5.38,2.84-10.78,5.25-15.8,2.22-4.63,5.24-9.07,9.62-11.89,5.22-3.35,11.59-3.77,17.49-2.17s11.47,5.4,16.03,9.77,8.32,8.78,11.51,13.87c5.68,9.07,8.75,19.32,12.19,29.36,3.73,10.89,8.27,21.4,15.51,30.46,2.03,2.54,4.24,4.93,6.58,7.19,1.39,1.34,3.51-.78,2.12-2.12h0Z"/>
    <path d="M294.07,82.06c-4.46-.09-8.92-.18-13.38-.27-8.5-.17-17.01-.34-25.51-.51-5.22-.1-10.44-.22-15.66-.31s-10.33,1.56-14.45,4.79c-2.61,2.05-4.62,4.64-6.14,7.57-1.86,3.58-3.59,7.24-5.18,10.95-3.17,7.41-5.83,15.03-7.9,22.82-1.95,7.33-3.57,14.87-4.04,22.46-.43,7.03,.28,14.28,3.37,20.69,3.27,6.81,9.25,11.48,15.21,15.84,7.05,5.15,14.12,10.28,21.18,15.42,6.03,4.39,12.4,9.5,20.16,10.01,6.43,.42,12.29-3.05,16.11-8.05,4.08-5.34,5.55-11.99,4.63-18.6-1.01-7.26-4.64-13.89-9.16-19.56-4.22-5.29-9.4-9.73-13.59-15.04-3.89-4.93-6.79-10.88-5.52-17.3s5.28-11.87,7.47-17.98c1.04-2.92,1.62-6.01,1.3-9.11-.2-1.9-3.2-1.92-3,0,.67,6.36-2.79,12-5.44,17.52s-4.62,11.6-2.97,17.88,5.8,11.14,9.99,15.67c4.56,4.93,9.47,9.53,13.01,15.29s6.03,12.81,5.02,19.69c-.87,5.91-4.39,11.65-9.62,14.65-6.18,3.55-12.89,1.57-18.6-1.92-3.35-2.05-6.49-4.46-9.66-6.78-3.42-2.49-6.83-4.97-10.25-7.46s-6.7-4.87-10.04-7.32c-2.94-2.15-5.84-4.37-8.38-6.99-4.96-5.09-7.53-11.63-8.13-18.66-.6-7.02,.4-14.05,1.82-20.9,1.59-7.69,3.75-15.26,6.43-22.63,1.34-3.67,2.8-7.3,4.41-10.86s3.06-6.95,5.04-10.13c3.3-5.31,9.23-8.71,15.46-8.97,4.37-.18,8.81,.13,13.19,.22,8.19,.16,16.37,.32,24.56,.49,5.8,.11,11.59,.23,17.39,.34l.9,.02c1.93,.04,1.93-2.96,0-3h0Z"/>
    <path d="M258.9,123.95c3.81-.57,7.96,.36,11.44,1.91,1.56,.69,3.12,1.53,4.41,2.65,.94,.82,1.67,1.64,1.83,2.7,.12,.8,1.13,1.25,1.85,1.05,.86-.24,1.17-1.04,1.05-1.85-.52-3.49-4.74-5.86-7.62-7.15-4.29-1.91-9.06-2.91-13.75-2.21-.8,.12-1.25,1.13-1.05,1.85,.24,.86,1.04,1.17,1.85,1.05h0Z"/>
    <path d="M202.44,140.44c-3.02,3.91-6.24,7.64-9.69,11.19-2.9,2.99-5.9,5.88-8.72,8.95-3.59,3.91-6.83,8.11-10.05,12.33s-6.64,8.89-9.53,13.62c-5.69,9.3-9.86,19.85-9.7,30.9,.08,5.26,1.2,10.43,3.45,15.19,2.07,4.38,5.06,8.29,8.39,11.79,7.34,7.68,16.35,13.78,24.77,20.19,9.5,7.24,18.87,14.72,28.56,21.7,7.76,5.59,17.5,10.37,27.15,6.8,4.24-1.57,7.63-4.61,9.29-8.86,1.75-4.47,1.37-9.68-.28-14.12-1.83-4.93-5.08-9.12-8.54-13.02-3.92-4.43-8-8.74-12-13.09-8.36-9.09-16.71-18.18-25.07-27.27-2.02-2.2-4.04-4.39-6.06-6.59-1.31-1.42-3.43,.7-2.12,2.12,7.96,8.66,15.93,17.32,23.89,25.99,3.93,4.27,7.85,8.54,11.78,12.81,3.65,3.97,7.54,7.84,10.79,12.16,2.9,3.85,5.3,8.25,5.69,13.14,.34,4.36-.9,8.8-4.36,11.67-7.42,6.15-17.88,2.7-25.05-1.86-4.5-2.86-8.66-6.25-12.9-9.48-4.65-3.55-9.31-7.09-13.96-10.64s-9.31-7.09-13.96-10.64c-3.8-2.9-7.62-5.8-11.19-8.98-7.12-6.35-13.15-13.95-14.81-23.59-1.77-10.29,1.27-20.88,6.05-29.94,2.48-4.7,5.42-9.13,8.54-13.43s6.41-8.67,9.86-12.8c5.32-6.36,11.54-11.86,16.98-18.11,1.7-1.95,3.33-3.97,4.91-6.01,.5-.65,.62-1.49,0-2.12-.51-.52-1.63-.64-2.12,0h0Z"/>
    <path d="M214.56,223.56c4.47-5.31,7.76-11.52,9.09-18.37s.79-13.84-.82-20.59c-.45-1.88-3.34-1.08-2.89,.8,1.48,6.2,2.04,12.7,.82,19s-4.18,12.12-8.32,17.04c-1.24,1.47,.88,3.6,2.12,2.12h0Z"/>
    <path d="M155.2,228.74c-5.36,7.87-11.38,16.05-10.85,26.05,.28,5.22,1.78,10.57,4.45,15.08s6.2,8.07,10.09,11.3c4.12,3.42,8.58,6.39,13.02,9.38,4.91,3.3,9.86,6.56,15,9.51,9.9,5.7,21.03,10.7,32.59,11.38,6.2,.36,12.14-1.06,16.9-5.18,4.18-3.61,7.21-9.53,3.4-14.52-1.16-1.51-3.76-.02-2.59,1.51,3.15,4.12,.02,8.5-3.38,11.27-4.08,3.32-9.19,4.22-14.32,3.91-10.65-.63-20.96-5.25-30.12-10.42-4.77-2.7-9.39-5.67-13.95-8.72-4.14-2.76-8.33-5.5-12.28-8.54s-7.43-6.16-10.22-10.05-4.57-8.57-5.32-13.42c-.71-4.59-.06-9.19,1.84-13.42,2.19-4.85,5.36-9.23,8.35-13.61,1.09-1.6-1.51-3.1-2.59-1.51h0Z"/>
    <path d="M250.74,292.8c7.49,4.97,16.24,7.46,25.23,7.12,4.52-.17,9.02-.96,13.37-2.18,4.06-1.14,8-2.63,11.56-4.93,6.3-4.09,12.01-10.76,11.72-18.69-.13-3.69-1.57-6.74-4.66-8.82-2.88-1.94-6.34-2.82-9.39-4.43-3.53-1.86-6.82-4.16-10.24-6.19-3.2-1.9-6.71-4.01-10.44-4.62-1.56-.25-2.77,1.87-1.16,2.74,7.99,4.31,16,8.64,24.36,12.18s16.38,6,25.21,6.02c8.6,.03,17.51-2.13,24.49-7.34,7.73-5.77,11.49-14.82,17.18-22.33,6.44-8.5,14.62-15.63,23.85-20.94,1.67-.96,.16-3.56-1.51-2.59-8.01,4.61-15.25,10.55-21.31,17.53-3.01,3.47-5.69,7.19-8.13,11.08s-4.98,8.3-8.35,11.77c-5.89,6.08-14.25,9.1-22.57,9.7s-16.87-1.33-24.86-4.48c-9.29-3.65-18.08-8.46-26.85-13.19l-1.16,2.74c2.98,.48,5.74,2.02,8.33,3.5,3,1.72,5.89,3.62,8.85,5.41,2.7,1.63,5.5,2.85,8.39,4.08,2.62,1.12,5.63,2.5,6.53,5.46,2.11,6.9-2.87,13.72-8.11,17.64-6.34,4.73-14.64,6.99-22.43,7.71-9.41,.87-18.52-1.3-26.41-6.54-1.61-1.07-3.12,1.53-1.51,2.59h0Z"/>
    <path d="M384.29,221.8c-3.36-9.17-6.73-18.35-10.09-27.52-.66-1.8-3.56-1.02-2.89,.8,3.36,9.17,6.73,18.35,10.09,27.52,.66,1.8,3.56,1.02,2.89-.8h0Z"/>
    <path d="M382.61,224.73c-5.73-4.97-11.46-9.94-17.18-14.92-1.45-1.26-3.58,.85-2.12,2.12,5.73,4.97,11.46,9.94,17.18,14.92,1.45,1.26,3.58-.85,2.12-2.12h0Z"/>
    <path d="M362.44,243.44c-5.76,4.53-7.08,13.25-7.21,20.1-.14,7.64,1.16,15.94,6.02,22.07,5.48,6.91,14.71,10.64,23.44,9.34,10.02-1.49,17.7-9.13,24.41-16.1,8.4-8.73,16.84-17.42,25.18-26.21,6.84-7.22,13.72-15.1,16.79-24.76,3.39-10.68,.42-21.45-4.38-31.18-2.5-5.06-5.41-9.91-8.29-14.77-3.02-5.09-6.11-10.15-9.26-15.16-12.4-19.69-25.82-38.73-40.19-57.03-1.78-2.27-3.58-4.52-5.38-6.77-1.21-1.5-3.32,.63-2.12,2.12,14,17.37,27.12,35.45,39.31,54.14,6.09,9.33,11.94,18.82,17.55,28.44,5.29,9.08,11.05,18.88,11.3,29.69,.23,9.82-4.83,18.5-10.9,25.84-3.21,3.88-6.72,7.5-10.21,11.13-4.11,4.28-8.22,8.55-12.33,12.83-3.85,4.01-7.66,8.06-11.57,12.01-3.35,3.38-6.87,6.68-10.94,9.17s-8.25,3.94-12.84,3.87c-4.12-.06-8.16-1.36-11.64-3.54s-6.37-5.3-8.14-9.04c-1.42-3-2.12-6.42-2.5-9.7-.79-6.9-.55-15.11,3.2-21.21,.76-1.23,1.68-2.29,2.82-3.18,1.52-1.19-.62-3.3-2.12-2.12h0Z"/>
    <path d="M701.79,124.2c8.56-8.62,14.46-19.02,18.66-30.35,3.69-9.96,6.19-20.39,10.69-30.04,2.35-5.03,5.23-9.77,8.76-14.06,3.96-4.82,8.3-9.5,13.62-12.83,5.17-3.24,11.56-5.18,17.66-3.93,5.3,1.08,9.56,4.51,12.56,8.92,3.02,4.46,4.93,9.57,6.42,14.71,1.84,6.33,3.24,12.81,4.53,19.27,2.79,13.92,4.64,28.03,5.54,42.2,.78,12.2,1.35,26.22-5.89,36.78-3.04,4.44-7.55,8.17-12.75,9.71s-10.35,.51-14.54-2.74c-10.31-8-11.1-22.65-12.5-34.55-1.69-14.47-3.39-28.94-5.08-43.42-.42-3.62-.85-7.24-1.27-10.85-.22-1.89-3.22-1.92-3,0,1.79,15.29,3.58,30.59,5.37,45.88,.85,7.29,1.49,14.64,2.73,21.88,1.09,6.36,2.95,12.78,6.8,18.05,3.29,4.51,7.96,8.26,13.59,9.2s11.18-.81,15.74-4.02c10.67-7.53,13.88-20.59,14.17-33,.17-7.04-.38-14.12-1-21.13-.66-7.35-1.57-14.68-2.72-21.97-1.18-7.47-2.63-14.9-4.34-22.26-1.37-5.91-2.81-11.86-5.14-17.48-2.05-4.95-4.8-9.82-8.94-13.34-4.6-3.91-10.49-5.7-16.5-5.08-13.12,1.36-23.35,11.98-30.54,22.25-6.47,9.24-9.92,20.01-13.34,30.64-3.6,11.2-7.65,22.21-14.74,31.74-2.03,2.73-4.29,5.28-6.68,7.7-1.36,1.37,.76,3.49,2.12,2.12h0Z"/>
    <path d="M797.93,86.7l12.5-.26,24.2-.5c5.14-.11,10.29-.22,15.43-.32,4.33-.08,8.56,1.21,11.95,3.94,2.49,2,4.2,4.52,5.6,7.36,1.7,3.44,3.29,6.95,4.74,10.5,2.89,7.09,5.3,14.38,7.21,21.8,1.8,7.03,3.34,14.24,3.81,21.5,.44,6.72,0,13.81-2.94,19.99-3.11,6.53-8.8,10.97-14.43,15.24-6.53,4.96-13.06,9.93-19.59,14.89-5.4,4.1-11.5,9.45-18.69,9.37-5.83-.07-10.64-4.27-13.33-9.16-3.17-5.76-3.29-12.43-1.45-18.64,1.96-6.63,5.91-12.37,10.47-17.48,4.18-4.67,8.73-9.13,12.05-14.49,3.22-5.2,4.72-11.13,3.41-17.18-1.32-6.08-4.89-11.32-6.95-17.14-.98-2.79-1.53-5.63-1.23-8.58,.19-1.92-2.81-1.91-3,0-.65,6.48,2.49,12.37,5.16,18.05,1.36,2.89,2.64,5.85,3.24,9,.57,2.99,.31,6.06-.64,8.95-1.97,6.04-6.54,10.93-10.75,15.52-4.69,5.12-9.29,10.26-12.33,16.57-2.98,6.21-4.58,13.35-3.11,20.19,1.27,5.95,4.88,11.64,10.09,14.88,5.87,3.65,12.63,2.84,18.52-.32,3.31-1.77,6.29-4.09,9.27-6.36,3.33-2.53,6.66-5.06,9.99-7.59,3.4-2.58,6.79-5.16,10.19-7.74,2.95-2.24,5.94-4.47,8.63-7.03,5.24-4.98,8.62-11.19,9.86-18.32s.69-14.09-.43-21.03c-1.25-7.77-3.15-15.46-5.53-22.96-2.4-7.56-5.32-14.95-8.75-22.1-1.46-3.04-2.98-5.95-5.38-8.37-2.19-2.21-4.86-3.9-7.77-4.99-5.15-1.93-11.09-1.21-16.49-1.09l-24.36,.5-18.21,.38-.98,.02c-1.93,.04-1.93,3.04,0,3h0Z"/>
    <path d="M832.42,122.7c-4.51-.71-9.12,.3-13.22,2.21-2.82,1.32-6.85,3.71-7.33,7.15-.11,.8,.2,1.61,1.05,1.85,.7,.19,1.73-.24,1.85-1.05,.15-1.08,.8-1.84,1.7-2.67,1.24-1.13,2.74-1.98,4.26-2.69,3.3-1.54,7.27-2.48,10.91-1.91,.8,.13,1.61-.2,1.85-1.05,.2-.71-.24-1.72-1.05-1.85h0Z"/>
    <path d="M883.43,143.9c2.79,3.77,5.75,7.4,8.92,10.85,2.58,2.81,5.28,5.51,7.83,8.34,3.22,3.57,6.15,7.35,9,11.22,3.06,4.16,6.09,8.36,8.83,12.75,5.49,8.78,9.83,18.51,10.43,28.97,.29,5.06-.31,10.15-2.09,14.91-1.58,4.23-4.09,8.09-7.02,11.51-6.33,7.4-14.39,13.2-21.97,19.22-9,7.15-17.98,14.32-26.99,21.46-6.94,5.5-15.47,11.75-24.85,9.28-4.02-1.06-7.39-3.76-8.77-7.76-1.51-4.36-.86-9.27,.95-13.44,2-4.6,5.25-8.51,8.53-12.25,3.71-4.24,7.44-8.45,11.16-12.67,7.65-8.68,15.3-17.37,22.96-26.05,1.86-2.11,3.72-4.22,5.58-6.33,1.27-1.44-.84-3.57-2.12-2.12-7.98,9.06-15.96,18.11-23.94,27.17-3.99,4.53-7.98,9.06-11.97,13.59-3.58,4.06-7.35,8.05-10.3,12.61-4.99,7.7-7.41,19.46,.2,26.45,3.1,2.85,7.28,4.21,11.44,4.35,4.83,.15,9.47-1.5,13.62-3.87,4.6-2.62,8.69-6.08,12.82-9.36,4.75-3.78,9.5-7.55,14.24-11.33,4.75-3.78,9.5-7.55,14.24-11.33,3.9-3.1,7.83-6.18,11.5-9.56,7.17-6.6,13.28-14.59,15.13-24.36,1.98-10.46-.39-21.21-4.8-30.75-4.58-9.91-11.24-18.93-17.91-27.52-5.3-6.82-11.61-12.68-17.16-19.27-1.7-2.02-3.32-4.09-4.89-6.21-1.14-1.53-3.74-.04-2.59,1.51h0Z"/>
    <path d="M876.2,223.08c-4-4.96-6.79-10.77-7.96-17.04-1.17-6.3-.64-12.79,.79-19,.43-1.88-2.46-2.68-2.89-.8-1.55,6.76-2.06,13.74-.79,20.59,1.27,6.81,4.4,13,8.73,18.37,1.21,1.5,3.32-.63,2.12-2.12h0Z"/>
    <path d="M928.47,231.9c4.64,7.11,10.11,14.55,10.03,23.41-.04,4.68-1.23,9.61-3.39,13.76-2.13,4.09-5.2,7.56-8.6,10.63-3.47,3.14-7.28,5.87-11.1,8.56-4.39,3.09-8.79,6.17-13.33,9.03-8.91,5.62-18.51,10.53-28.98,12.34-5.31,.92-11.22,.83-15.84-2.29-3.94-2.67-8.2-7.79-4.79-12.46,1.14-1.56-1.46-3.06-2.59-1.51-3.16,4.31-1.45,9.43,1.84,13.09,3.64,4.05,8.54,6.23,13.94,6.6s10.85-.83,15.93-2.45c5.49-1.75,10.75-4.21,15.77-7.02,5.13-2.87,10.03-6.13,14.86-9.47,4.3-2.98,8.63-5.96,12.73-9.21s7.68-6.66,10.6-10.82c3-4.3,4.8-9.26,5.57-14.43,.74-4.97,.28-9.91-1.61-14.59-2.12-5.26-5.37-9.97-8.46-14.7-1.05-1.61-3.65-.11-2.59,1.51h0Z"/>
    <path d="M837.97,291.85c-6.66,4.61-14.35,6.99-22.46,6.72-4.11-.13-8.17-.9-12.12-2.04-3.61-1.05-7.06-2.38-10.21-4.46-5.6-3.69-10.55-9.74-10.07-16.8,.22-3.24,1.86-5.27,4.67-6.76s5.55-2.37,8.16-3.9c3.12-1.82,6.07-3.92,9.14-5.81,2.8-1.73,5.83-3.65,9.14-4.21l-1.16-2.74c-7.45,4.2-14.91,8.41-22.72,11.91-7.55,3.38-15.4,5.95-23.74,5.89s-16.42-2.39-22.58-7.82c-3.48-3.06-5.97-6.96-8.33-10.9s-4.77-7.89-7.6-11.56c-6.14-7.96-13.73-14.75-22.35-19.93-1.66-1-3.17,1.6-1.51,2.59,7.88,4.73,14.84,10.85,20.6,18.01,2.99,3.72,5.49,7.75,7.93,11.84,2.39,4.01,4.89,8.05,8.3,11.3,6.12,5.83,14.36,8.76,22.7,9.35s16.6-1.4,24.39-4.59c9.17-3.77,17.82-8.64,26.44-13.5,1.57-.88,.44-3.01-1.16-2.74-3.14,.53-6.09,2.25-8.78,3.86-3.08,1.84-6.02,3.9-9.08,5.78-2.83,1.75-5.91,2.87-8.87,4.37s-5.43,3.69-6.21,7.01c-1.79,7.58,2.49,14.99,8.17,19.7,6.46,5.36,14.91,7.91,23.15,8.88,9.83,1.15,19.55-1.21,27.69-6.85,1.58-1.09,.08-3.69-1.51-2.59h0Z"/>
    <path d="M714.31,224.24c3.22-9.17,6.45-18.35,9.67-27.52,.64-1.83-2.26-2.61-2.89-.8-3.22,9.17-6.45,18.35-9.67,27.52-.64,1.83,2.26,2.61,2.89,.8h0Z"/>
    <path d="M715.17,228.5c5.49-4.97,10.98-9.94,16.47-14.92,1.43-1.3-.69-3.42-2.12-2.12-5.49,4.97-10.98,9.94-16.47,14.92-1.43,1.3,.69,3.42,2.12,2.12h0Z"/>
    <path d="M730.34,247.2c5.17,4.24,6.03,12.43,6.05,18.65,.02,7.07-1.08,14.94-5.88,20.46-5.38,6.2-14,9.13-21.91,6.61-9.22-2.93-15.83-11.3-22.14-18.15-7.64-8.3-15.43-16.48-22.9-24.94-6.24-7.07-12.25-15.01-14.09-24.47-2.04-10.47,2.15-20.75,6.92-29.86,5.05-9.62,10.62-18.99,16.27-28.26,11.39-18.69,23.7-36.83,36.87-54.32,1.64-2.17,3.29-4.34,4.95-6.49,.5-.65,.09-1.67-.54-2.05-.77-.46-1.56-.1-2.05,.54-13.99,18.12-27.06,36.96-39.12,56.42-6.08,9.8-11.94,19.74-17.47,29.86-5.18,9.48-10.17,20.02-9.25,31.12,.83,10.07,6.3,18.76,12.59,26.36,3.44,4.16,7.16,8.08,10.81,12.05,4.12,4.47,8.23,8.94,12.35,13.41,3.74,4.06,7.4,8.24,11.37,12.08,3.46,3.35,7.3,6.49,11.73,8.47,8.32,3.72,17.63,2.34,24.72-3.36,6.34-5.1,8.81-12.62,9.55-20.46,.69-7.3,.23-15.9-3.73-22.31-.81-1.3-1.79-2.51-2.98-3.48-1.48-1.22-3.62,.9-2.12,2.12h0Z"/>
  </g>
</svg>